<?xml version="1.0" encoding="UTF-8" standalone="no"?>
<svg
   version="1.1"
   x="0"
   y="0"
   width="238.176"
   height="48.000"
   viewBox="0, 0, 238.176, 48.000"
   id="CTStools"
   xmlns="http://www.w3.org/2000/svg"
   xmlns:svg="http://www.w3.org/2000/svg">
  <defs
     id="defs23" />
  <g
     id="Calque_1"
     transform="matrix(1.0722611,0,0,1.0722663,-76.640934,-452.7537)">
    <path
       d="m 109.257,436.068 h -5.906 q -0.234,-2.016 -1.149,-3.656 -0.914,-1.641 -2.414,-2.813 -1.5,-1.172 -3.562,-1.805 -2.063,-0.632 -4.547,-0.632 -3.328,0 -5.977,1.172 -2.648,1.171 -4.476,3.421 -1.828,2.25 -2.813,5.485 -0.984,3.234 -0.984,7.359 0,4.219 0.984,7.477 0.985,3.258 2.836,5.484 1.852,2.227 4.477,3.375 2.625,1.149 5.859,1.149 5.297,0 8.321,-2.532 3.023,-2.531 3.445,-7.031 h 5.906 q -0.328,3.516 -1.781,6.211 -1.453,2.695 -3.774,4.547 -2.32,1.851 -5.414,2.789 -3.093,0.937 -6.656,0.937 -4.594,0 -8.32,-1.57 -3.727,-1.57 -6.352,-4.5 -2.625,-2.93 -4.054,-7.055 -1.43,-4.125 -1.43,-9.281 0,-5.109 1.43,-9.258 1.429,-4.148 4.054,-7.054 2.625,-2.907 6.352,-4.477 3.726,-1.57 8.32,-1.57 3.516,0 6.586,1.008 3.07,1.007 5.414,2.812 2.344,1.805 3.82,4.359 1.477,2.555 1.805,5.649 z"
       fill="#232323"
       id="path2" />
    <path
       d="m 143.976,428.099 h -14.344 v 38.156 h -5.765 v -38.156 h -14.204 v -5.109 h 34.313 z"
       fill="#232323"
       id="path4" />
    <path
       d="m 162.476,467.005 q -4.641,0 -8.086,-1.101 -3.445,-1.102 -5.719,-3.07 -2.273,-1.969 -3.422,-4.665 -1.148,-2.695 -1.242,-5.835 h 5.531 q 0.188,2.437 1.243,4.218 1.054,1.782 2.742,2.953 1.687,1.172 3.914,1.735 2.226,0.562 4.805,0.562 2.343,0 4.312,-0.492 1.969,-0.492 3.375,-1.43 1.406,-0.937 2.203,-2.296 0.797,-1.36 0.797,-3.094 0,-1.828 -0.703,-3.071 -0.703,-1.242 -2.32,-2.156 -1.618,-0.914 -4.196,-1.664 -2.578,-0.75 -6.328,-1.547 -3.797,-0.797 -6.445,-1.875 -2.649,-1.078 -4.289,-2.508 -1.641,-1.429 -2.391,-3.257 -0.75,-1.828 -0.75,-4.172 0,-2.625 1.102,-4.828 1.101,-2.203 3.093,-3.797 1.993,-1.594 4.852,-2.485 2.859,-0.89 6.375,-0.89 3.656,0 6.633,0.867 2.976,0.867 5.133,2.531 2.156,1.664 3.398,4.078 1.242,2.414 1.336,5.508 h -5.578 q -0.797,-7.875 -10.688,-7.875 -4.875,0 -7.476,1.828 -2.602,1.828 -2.602,4.735 0,1.359 0.422,2.343 0.422,0.985 1.547,1.735 1.125,0.75 3.07,1.383 1.946,0.632 4.946,1.289 2.953,0.656 5.226,1.289 2.274,0.633 3.961,1.195 1.594,0.563 3.07,1.5 1.477,0.938 2.625,2.273 1.149,1.336 1.852,3.094 0.703,1.758 0.703,4.008 0,2.813 -1.195,5.18 -1.195,2.367 -3.305,4.101 -2.109,1.735 -5.062,2.719 -2.953,0.984 -6.469,0.984 z"
       fill="#e55928"
       id="path6" />
    <path
       d="m 200.999,446.662 v 19.945 h -4.804 v -19.945 h -3.985 v -4.805 h 3.985 v -7.992 h 4.804 v 7.992 h 4.008 v 4.805 z"
       fill="#232323"
       id="path8" />
    <path
       d="m 227.999,454.255 q 0,-3.257 -2.367,-5.625 -2.367,-2.367 -5.648,-2.367 -3.282,0 -5.649,2.367 -2.343,2.344 -2.343,5.625 0,3.305 2.343,5.649 2.344,2.344 5.649,2.344 3.304,0 5.648,-2.344 2.367,-2.367 2.367,-5.649 z m 4.805,0 q 0,5.25 -3.773,9.024 -3.774,3.726 -9.047,3.726 -5.297,0 -9.047,-3.726 -3.75,-3.75 -3.75,-9.024 0,-5.273 3.75,-9.023 3.773,-3.773 9.047,-3.773 5.273,0 9.047,3.773 3.773,3.773 3.773,9.023 z"
       fill="#232323"
       id="path10" />
    <path
       d="m 256.804,454.255 q 0,-3.257 -2.367,-5.625 -2.367,-2.367 -5.649,-2.367 -3.281,0 -5.648,2.367 -2.344,2.344 -2.344,5.625 0,3.305 2.344,5.649 2.344,2.344 5.648,2.344 3.305,0 5.649,-2.344 2.367,-2.367 2.367,-5.649 z m 4.805,0 q 0,5.25 -3.774,9.024 -3.773,3.726 -9.047,3.726 -5.296,0 -9.046,-3.726 -3.75,-3.75 -3.75,-9.024 0,-5.273 3.75,-9.023 3.773,-3.773 9.046,-3.773 5.274,0 9.047,3.773 3.774,3.773 3.774,9.023 z"
       fill="#232323"
       id="path12" />
    <path
       d="m 266.812,466.607 v -32.742 h 4.781 v 32.742 z"
       fill="#232323"
       id="path14" />
    <path
       d="m 293.601,459.693 q 0,3.047 -2.203,5.18 -2.203,2.132 -5.227,2.132 -2.672,0 -4.687,-1.664 -2.016,-1.687 -2.602,-4.359 l 4.641,-1.242 q 0.469,2.508 2.648,2.508 1.031,0 1.852,-0.75 0.82,-0.774 0.82,-1.805 0,-1.711 -2.601,-2.836 -2.086,-0.938 -3.293,-1.523 -1.207,-0.586 -1.536,-0.844 -2.601,-1.922 -2.601,-5.602 0,-3 2.18,-5.226 2.203,-2.203 5.25,-2.203 2.671,0 4.687,1.71 1.922,1.665 2.555,4.336 l -4.688,1.219 q -0.539,-2.461 -2.554,-2.461 -1.055,0 -1.852,0.797 -0.797,0.797 -0.797,1.828 0,1.688 2.602,2.836 2.062,0.891 3.246,1.488 1.183,0.598 1.558,0.879 2.602,1.969 2.602,5.602 z"
       fill="#232323"
       id="path16" />
  </g>
</svg>