<?xml version="1.0" encoding="UTF-8" standalone="no"?>
<!-- Uploaded to: SVG Repo, www.svgrepo.com, Generator: SVG Repo Mixer Tools -->

<svg
   x="0px"
   y="0px"
   width="48px"
   height="48px"
   viewBox="0 0 48 48"
   version="1.1"
   preserveAspectRatio="xMidYMid"
   id="VisualStudioCode"
   sodipodi:docname="VisualStudioCode.svg"
   xmlns:xlink="http://www.w3.org/1999/xlink"
   xmlns="http://www.w3.org/2000/svg"
   xmlns:svg="http://www.w3.org/2000/svg">
  <defs
     id="defs8">
    <path
       d="M180.82764,252.605272 C184.843951,254.170159 189.42406,254.069552 193.478224,252.11917 L245.979142,226.856851 C251.495593,224.202221 255.003889,218.618034 255.003889,212.49296 L255.003889,41.1971845 C255.003889,35.0719113 251.495593,29.4886211 245.979142,26.8339907 L193.478224,1.57068551 C188.158006,-0.989256713 181.931329,-0.362230036 177.262566,3.0323459 C176.595173,3.51727166 175.959655,4.05869672 175.363982,4.65536598 L74.8565893,96.3498444 L31.0778002,63.1181557 C27.0024197,60.0246398 21.3020866,60.2780499 17.5170718,63.7211005 L3.47578059,76.4937075 C-1.15402423,80.7052561 -1.15933349,87.9889043 3.46431538,92.2072265 L41.430759,126.844525 L3.46431538,161.482221 C-1.15933349,165.700742 -1.15402423,172.984291 3.47578059,177.19584 L17.5170718,189.967949 C21.3020866,193.411497 27.0024197,193.664509 31.0778002,190.571591 L74.8565893,157.339404 L175.363982,249.034221 C176.953772,250.625007 178.82048,251.823326 180.82764,252.605272 Z M191.291764,68.9559518 L115.029663,126.844525 L191.291764,184.733396 L191.291764,68.9559518 Z"
       id="path-1" />
    <linearGradient
       x1="127.17294"
       y1="0.00016458001"
       x2="127.17294"
       y2="254.3456"
       id="linearGradient-3"
       gradientTransform="scale(1.002588,0.99741864)"
       gradientUnits="userSpaceOnUse">
      <stop
         stop-color="#FFFFFF"
         offset="0%"
         id="stop3" />
      <stop
         stop-color="#FFFFFF"
         stop-opacity="0"
         offset="100%"
         id="stop5" />
    </linearGradient>
  </defs>
  <g
     id="g23"
     transform="matrix(0.18823242,0,0,0.18920769,0,-3.1247409e-5)">
    <mask
       id="mask-2"
       fill="#ffffff">
      <use
         xlink:href="#path-1"
         id="use10" />
    </mask>
    <g
       id="g13" />
    <path
       d="M 246.13478,26.873337 193.59302,1.5752377 c -6.08124,-2.9282435 -13.34985,-1.69304551 -18.1232,3.0799091 L 3.4664172,161.48222 c -4.6264579,4.21852 -4.6211387,11.50207 0.011475,15.71362 L 17.52768,189.96795 c 3.787406,3.44355 9.491225,3.69656 13.568996,0.60364 L 238.22867,33.436301 c 6.94885,-5.271608 16.92986,-0.315369 16.92986,8.40696 v -0.610017 c 0,-6.122584 -3.50729,-11.703882 -9.02375,-14.359907 z"
       fill="#0065a9"
       fill-rule="nonzero"
       mask="url(#mask-2)"
       id="path15" />
    <path
       d="m 246.13478,226.81601 -52.54176,25.29818 c -6.08124,2.92756 -13.34985,1.69239 -18.1232,-3.07997 L 3.4664172,92.207027 C -1.1600407,87.988805 -1.1547215,80.704957 3.4778923,76.493508 L 17.52768,63.720901 c 3.787406,-3.44305 9.491225,-3.69656 13.568996,-0.602945 L 238.22867,220.25265 c 6.94885,5.27141 16.92986,0.31577 16.92986,-8.40716 v 0.61061 c 0,6.12209 -3.50729,11.70329 -9.02375,14.35991 z"
       fill="#007acc"
       fill-rule="nonzero"
       mask="url(#mask-2)"
       id="path17" />
    <path
       d="m 193.42832,252.1345 c -6.08323,2.92557 -13.35184,1.6894 -18.1252,-3.08396 5.88103,5.88103 15.93775,1.7153 15.93775,-6.60221 V 11.272962 c 0,-8.3175393 -10.05672,-12.4830129 -15.93775,-6.6016022 4.77336,-4.77339791 12.04197,-6.0103391 18.1252,-3.0846805 l 52.5328,25.2633347 c 5.52043,2.654631 9.03072,8.237921 9.03072,14.363194 V 212.50928 c 0,6.12508 -3.51029,11.70827 -9.03072,14.3629 z"
       fill="#1f9cf0"
       fill-rule="nonzero"
       mask="url(#mask-2)"
       id="path19" />
    <path
       d="m 180.82789,252.60527 c 4.01631,1.56389 8.59642,1.46428 12.64959,-0.4861 l 52.50091,-25.26332 c 5.51745,-2.65463 9.02575,-8.23782 9.02575,-14.36289 V 41.196985 c 0,-6.125273 -3.5083,-11.708563 -9.02475,-14.363194 L 193.47748,1.5705261 c -5.31923,-2.55994916 -11.5459,-1.93292249 -16.21566,1.4616505 -0.6664,0.4849257 -1.30192,1.0263508 -1.89859,1.62302 L 74.856539,96.349645 31.07775,63.117956 C 27.002469,60.02444 21.302037,60.27795 17.517022,63.720901 L 3.4757806,76.493508 c -4.6298048,4.211549 -4.6351141,11.495297 -0.011465,15.713619 L 41.430809,126.84453 3.4643154,161.48222 c -4.6236489,4.21852 -4.6183396,11.50207 0.011465,15.71362 l 14.0412416,12.77211 c 3.785015,3.44355 9.485447,3.69656 13.560728,0.60364 L 74.856539,157.3394 175.36323,249.03422 c 1.58979,1.59079 3.4575,2.78911 5.46466,3.57105 z m 10.46412,-183.649517 -76.2621,57.888777 76.2621,57.88887 z"
       fill-opacity="0.25"
       fill="url(#linearGradient-3)"
       mask="url(#mask-2)"
       id="path21"
       style="fill:url(#linearGradient-3)" />
  </g>
</svg>
